<mxfile host="app.diagrams.net" modified="2023-04-19T14:08:46.734Z" agent="Mozilla/5.0 (Windows NT 10.0; Win64; x64) AppleWebKit/537.36 (KHTML, like Gecko) Chrome/111.0.0.0 Safari/537.36" etag="2JWutL5VV6_Ygud3pn34" version="21.2.0" type="device">
  <diagram name="Page-1" id="WtlooAHprNakoSUvQb06">
    <mxGraphModel dx="816" dy="565" grid="1" gridSize="10" guides="1" tooltips="1" connect="1" arrows="1" fold="1" page="1" pageScale="1" pageWidth="827" pageHeight="1169" math="0" shadow="0">
      <root>
        <mxCell id="0" />
        <mxCell id="1" parent="0" />
        <mxCell id="MxGE-90BNF-Mkf4Y3gli-1" value="" style="edgeStyle=orthogonalEdgeStyle;rounded=0;orthogonalLoop=1;jettySize=auto;html=1;" edge="1" parent="1" source="MxGE-90BNF-Mkf4Y3gli-2" target="MxGE-90BNF-Mkf4Y3gli-4">
          <mxGeometry relative="1" as="geometry" />
        </mxCell>
        <mxCell id="MxGE-90BNF-Mkf4Y3gli-2" value="SecondArrayWithIf" style="rounded=1;whiteSpace=wrap;html=1;" vertex="1" parent="1">
          <mxGeometry x="330" y="10" width="120" height="60" as="geometry" />
        </mxCell>
        <mxCell id="MxGE-90BNF-Mkf4Y3gli-3" value="" style="edgeStyle=orthogonalEdgeStyle;rounded=0;orthogonalLoop=1;jettySize=auto;html=1;" edge="1" parent="1" source="MxGE-90BNF-Mkf4Y3gli-4" target="MxGE-90BNF-Mkf4Y3gli-6">
          <mxGeometry relative="1" as="geometry" />
        </mxCell>
        <mxCell id="MxGE-90BNF-Mkf4Y3gli-4" value="string[] array1&amp;nbsp;&lt;br&gt;string array2&lt;br&gt;int count = 0" style="shape=parallelogram;perimeter=parallelogramPerimeter;whiteSpace=wrap;html=1;fixedSize=1;" vertex="1" parent="1">
          <mxGeometry x="330" y="120" width="120" height="60" as="geometry" />
        </mxCell>
        <mxCell id="MxGE-90BNF-Mkf4Y3gli-5" value="" style="edgeStyle=orthogonalEdgeStyle;rounded=0;orthogonalLoop=1;jettySize=auto;html=1;" edge="1" parent="1" source="MxGE-90BNF-Mkf4Y3gli-6" target="MxGE-90BNF-Mkf4Y3gli-8">
          <mxGeometry relative="1" as="geometry" />
        </mxCell>
        <mxCell id="MxGE-90BNF-Mkf4Y3gli-6" value="for (int i = 0;&lt;br&gt;i &amp;lt; array1.length;&lt;br&gt;i++)" style="shape=hexagon;perimeter=hexagonPerimeter2;whiteSpace=wrap;html=1;fixedSize=1;" vertex="1" parent="1">
          <mxGeometry x="330" y="210" width="120" height="80" as="geometry" />
        </mxCell>
        <mxCell id="MxGE-90BNF-Mkf4Y3gli-7" value="" style="edgeStyle=orthogonalEdgeStyle;rounded=0;orthogonalLoop=1;jettySize=auto;html=1;" edge="1" parent="1" source="MxGE-90BNF-Mkf4Y3gli-8" target="MxGE-90BNF-Mkf4Y3gli-10">
          <mxGeometry relative="1" as="geometry" />
        </mxCell>
        <mxCell id="MxGE-90BNF-Mkf4Y3gli-8" value="if (array1[i].length &amp;lt;= 3)" style="rhombus;whiteSpace=wrap;html=1;" vertex="1" parent="1">
          <mxGeometry x="277.5" y="350" width="225" height="80" as="geometry" />
        </mxCell>
        <mxCell id="MxGE-90BNF-Mkf4Y3gli-9" value="" style="edgeStyle=orthogonalEdgeStyle;rounded=0;orthogonalLoop=1;jettySize=auto;html=1;" edge="1" parent="1" source="MxGE-90BNF-Mkf4Y3gli-10" target="MxGE-90BNF-Mkf4Y3gli-6">
          <mxGeometry relative="1" as="geometry" />
        </mxCell>
        <mxCell id="MxGE-90BNF-Mkf4Y3gli-10" value="array2[count] = array1[i]&lt;br&gt;count++;" style="whiteSpace=wrap;html=1;" vertex="1" parent="1">
          <mxGeometry x="40" y="225" width="177.5" height="50" as="geometry" />
        </mxCell>
        <mxCell id="MxGE-90BNF-Mkf4Y3gli-11" value="" style="endArrow=classic;html=1;rounded=0;exitX=0;exitY=0.5;exitDx=0;exitDy=0;entryX=0;entryY=0.75;entryDx=0;entryDy=0;" edge="1" parent="1" source="MxGE-90BNF-Mkf4Y3gli-8" target="MxGE-90BNF-Mkf4Y3gli-6">
          <mxGeometry width="50" height="50" relative="1" as="geometry">
            <mxPoint x="510" y="260" as="sourcePoint" />
            <mxPoint x="350" y="275" as="targetPoint" />
            <Array as="points">
              <mxPoint x="280" y="267" />
            </Array>
          </mxGeometry>
        </mxCell>
        <mxCell id="MxGE-90BNF-Mkf4Y3gli-12" value="Yes" style="text;html=1;align=center;verticalAlign=middle;resizable=0;points=[];autosize=1;strokeColor=none;fillColor=none;" vertex="1" parent="1">
          <mxGeometry x="190" y="370" width="40" height="20" as="geometry" />
        </mxCell>
        <mxCell id="MxGE-90BNF-Mkf4Y3gli-13" value="No" style="text;html=1;align=center;verticalAlign=middle;resizable=0;points=[];autosize=1;strokeColor=none;fillColor=none;" vertex="1" parent="1">
          <mxGeometry x="275" y="350" width="30" height="20" as="geometry" />
        </mxCell>
      </root>
    </mxGraphModel>
  </diagram>
</mxfile>
